<?xml version="1.0" encoding="UTF-8" standalone="no"?>
<!-- Created with Inkscape (http://www.inkscape.org/) -->

<svg
   xmlns:dc="http://purl.org/dc/elements/1.1/"
   xmlns:cc="http://creativecommons.org/ns#"
   xmlns:rdf="http://www.w3.org/1999/02/22-rdf-syntax-ns#"
   xmlns:svg="http://www.w3.org/2000/svg"
   xmlns="http://www.w3.org/2000/svg"
   xmlns:sodipodi="http://sodipodi.sourceforge.net/DTD/sodipodi-0.dtd"
   xmlns:inkscape="http://www.inkscape.org/namespaces/inkscape"
   version="1.1"
   id="svg2"
   xml:space="preserve"
   width="80"
   height="80"
   viewBox="0 0 80 80"
   sodipodi:docname="AK.svg"
   inkscape:version="0.92.2 (5c3e80d, 2017-08-06)"><metadata
     id="metadata8"><rdf:RDF><cc:Work
         rdf:about=""><dc:format>image/svg+xml</dc:format><dc:type
           rdf:resource="http://purl.org/dc/dcmitype/StillImage" /><dc:title></dc:title></cc:Work></rdf:RDF></metadata><defs
     id="defs6"><clipPath
       clipPathUnits="userSpaceOnUse"
       id="clipPath20"><path
         d="M 0,60 H 60 V 0 H 0 Z"
         id="path18"
         inkscape:connector-curvature="0" /></clipPath><clipPath
       clipPathUnits="userSpaceOnUse"
       id="clipPath30"><path
         d="M 23.6477,45.6988 H 58.1952 V 12.5144 H 23.6477 Z"
         id="path28"
         inkscape:connector-curvature="0" /></clipPath><clipPath
       clipPathUnits="userSpaceOnUse"
       id="clipPath118"><path
         d="M 1.8093,45.9326 H 44.4665 V 12.7494 H 1.8093 Z"
         id="path116"
         inkscape:connector-curvature="0" /></clipPath></defs><sodipodi:namedview
     pagecolor="#ffffff"
     bordercolor="#666666"
     borderopacity="1"
     objecttolerance="10"
     gridtolerance="10"
     guidetolerance="10"
     inkscape:pageopacity="0"
     inkscape:pageshadow="2"
     inkscape:window-width="1920"
     inkscape:window-height="1017"
     id="namedview4"
     showgrid="false"
     inkscape:zoom="4.17193"
     inkscape:cx="40.810344"
     inkscape:cy="37.690354"
     inkscape:window-x="-8"
     inkscape:window-y="-8"
     inkscape:window-maximized="1"
     inkscape:current-layer="g10" /><g
     id="g10"
     inkscape:groupmode="layer"
     inkscape:label="AK"
     transform="matrix(1.3333333,0,0,-1.3333333,0,80)"><path
       d="M 0.5,0.437 H 59.645 V 59.583 H 0.5 Z"
       style="fill:#ffeb74;fill-opacity:1;fill-rule:nonzero;stroke:none"
       id="path12"
       inkscape:connector-curvature="0" /><g
       id="g14"><g
         id="g16"
         clip-path="url(#clipPath20)"><path
           d="M 59.646,0.437 H 0.5 v 59.146 h 59.146 z"
           style="fill:none;stroke:#231f20;stroke-width:1;stroke-linecap:butt;stroke-linejoin:miter;stroke-miterlimit:10;stroke-dasharray:none;stroke-opacity:1"
           id="path22"
           inkscape:connector-curvature="0" /><g
           id="g24"><g
             id="g26" /><g
             id="g70"><g
               clip-path="url(#clipPath30)"
               id="g68"><g
                 transform="translate(57.1748,30.7568)"
                 id="g34"><path
                   d="m 0,0 c 0.841,-1.381 1.154,-3.349 0.969,-4.938 -1.895,-0.364 -3.646,-0.977 -5.54,-1.326 0.37,1.172 0.569,2.4 0.569,3.683 0,0.977 -0.113,1.939 -0.342,2.846 C -3.104,0.182 -1.238,0.098 0,0"
                   style="fill:#bababb;fill-opacity:1;fill-rule:nonzero;stroke:none"
                   id="path32"
                   inkscape:connector-curvature="0" /></g><g
                 transform="translate(51.6201,21.8418)"
                 id="g38"><path
                   d="M 0,0 C 0.969,-0.963 1.937,-1.925 2.906,-2.901 2.094,-3.809 1.254,-4.938 0.442,-5.846 c -1.539,0.447 -2.878,1.089 -4.13,2.066 l -0.085,0.111 c 1.452,0.99 2.676,2.274 3.588,3.78 z"
                   style="fill:#bababb;fill-opacity:1;fill-rule:nonzero;stroke:none"
                   id="path36"
                   inkscape:connector-curvature="0" /></g><g
                 transform="translate(46.9346,28.1758)"
                 id="g42"><path
                   d="m 0,0 c 0,3.376 -2.791,6.125 -6.238,6.125 -3.461,0 -6.253,-2.749 -6.253,-6.125 0,-3.376 2.792,-6.125 6.253,-6.125 C -2.791,-6.125 0,-3.376 0,0 m -3.575,-11.929 c -0.855,-0.195 -1.752,-0.293 -2.663,-0.293 -1.168,0 -2.293,0.155 -3.362,0.448 v 0.013 c -0.74,0.196 -1.466,0.46 -2.15,0.782 -1.909,0.92 -3.532,2.301 -4.729,3.99 -0.797,1.101 -1.396,2.33 -1.78,3.64 -0.299,1.061 -0.47,2.191 -0.47,3.349 0,1.312 0.213,2.567 0.598,3.753 0.356,1.074 0.855,2.093 1.481,3.014 0.812,1.185 1.824,2.218 2.991,3.055 1.168,0.851 2.507,1.507 3.945,1.925 1.111,0.307 2.265,0.475 3.476,0.475 1.581,0 3.091,-0.293 4.486,-0.824 C -0.74,11.021 0.214,10.505 1.083,9.892 2.649,8.775 3.945,7.311 4.843,5.608 5.312,4.744 5.669,3.809 5.896,2.846 6.125,1.939 6.238,0.977 6.238,0 6.238,-1.283 6.039,-2.511 5.669,-3.683 5.37,-4.576 4.985,-5.427 4.501,-6.223 c -0.912,-1.506 -2.137,-2.79 -3.589,-3.78 -1.325,-0.921 -2.849,-1.591 -4.487,-1.926"
                   style="fill:#bababb;fill-opacity:1;fill-rule:nonzero;stroke:none"
                   id="path40"
                   inkscape:connector-curvature="0" /></g><g
                 transform="translate(52.5039,41.5693)"
                 id="g46"><path
                   d="M 0,0 C 0.868,-1.019 1.353,-2.148 2.222,-3.153 1.495,-4.799 0.498,-6.446 -0.727,-7.785 -1.624,-6.083 -2.92,-4.618 -4.486,-3.502 -3.091,-2.441 -1.396,-1.061 0,0"
                   style="fill:#bababb;fill-opacity:1;fill-rule:nonzero;stroke:none"
                   id="path44"
                   inkscape:connector-curvature="0" /></g><g
                 transform="translate(44.0859,45.3081)"
                 id="g50"><path
                   d="m 0,0 c 0.655,-1.841 0.841,-3.809 1.097,-5.734 -1.396,0.53 -2.906,0.823 -4.487,0.823 -1.211,0 -2.364,-0.167 -3.475,-0.474 l -0.029,0.112 c 0.329,1.883 0.67,3.766 0.998,5.664 C -3.874,0.349 -2.008,0.042 0,0"
                   style="fill:#bababb;fill-opacity:1;fill-rule:nonzero;stroke:none"
                   id="path48"
                   inkscape:connector-curvature="0" /></g><g
                 transform="translate(43.3594,16.2471)"
                 id="g54"><path
                   d="m 0,0 c -0.128,-1.157 -0.171,-2.329 -0.327,-3.474 -1.638,-0.32 -3.376,-0.348 -5.014,-0.055 -0.256,1.172 -0.498,2.33 -0.74,3.488 l 0.057,0.195 c 1.068,-0.293 2.193,-0.447 3.361,-0.447 0.911,0 1.809,0.098 2.663,0.293"
                   style="fill:#bababb;fill-opacity:1;fill-rule:nonzero;stroke:none"
                   id="path52"
                   inkscape:connector-curvature="0" /></g><g
                 transform="translate(33.2754,38.0117)"
                 id="g58"><path
                   d="m 0,0 v -0.014 c -1.167,-0.837 -2.179,-1.87 -2.991,-3.055 -0.712,1.227 -1.78,2.343 -2.99,3.152 0.37,1.312 1.196,2.442 2.406,3.112 C -2.278,2.399 -0.968,1.144 0,0"
                   style="fill:#bababb;fill-opacity:1;fill-rule:nonzero;stroke:none"
                   id="path56"
                   inkscape:connector-curvature="0" /></g><g
                 transform="translate(35.1846,17.1963)"
                 id="g62"><path
                   d="M 0,0 C -1.012,-0.754 -2.222,-1.214 -3.461,-1.409 -4.302,-0.893 -5.37,-0.517 -6.196,0 -5.74,1.312 -5.284,2.623 -4.814,3.935 L -4.729,3.99 C -3.532,2.302 -1.909,0.921 0,0"
                   style="fill:#bababb;fill-opacity:1;fill-rule:nonzero;stroke:none"
                   id="path60"
                   inkscape:connector-curvature="0" /></g><g
                 transform="translate(28.7749,31.9429)"
                 id="g66"><path
                   d="m 0,0 0.029,-0.014 c -0.385,-1.186 -0.598,-2.442 -0.598,-3.753 0,-1.158 0.171,-2.288 0.469,-3.349 l -0.327,-0.083 c -1.638,0.154 -3.062,0.279 -4.7,0.433 0.398,1.925 0.754,3.85 0.584,5.803 C -3.034,-0.642 -1.51,-0.321 0,0"
                   style="fill:#bababb;fill-opacity:1;fill-rule:nonzero;stroke:none"
                   id="path64"
                   inkscape:connector-curvature="0" /></g></g></g></g><g
           id="g72"
           transform="translate(46.9346,28.1758)"><path
             d="m 0,0 c 0,-3.376 -2.791,-6.125 -6.238,-6.125 -3.461,0 -6.253,2.749 -6.253,6.125 0,3.376 2.792,6.125 6.253,6.125 C -2.791,6.125 0,3.376 0,0 Z"
             style="fill:none;stroke:#231f20;stroke-width:1;stroke-linecap:butt;stroke-linejoin:miter;stroke-miterlimit:10;stroke-dasharray:none;stroke-opacity:1"
             id="path74"
             inkscape:connector-curvature="0" /></g><g
           id="g76"
           transform="translate(52.8311,31.022)"><path
             d="m 0,0 c 0.229,-0.907 0.342,-1.87 0.342,-2.846 0,-1.283 -0.199,-2.511 -0.57,-3.683 -0.298,-0.893 -0.683,-1.744 -1.168,-2.54 -0.912,-1.506 -2.136,-2.79 -3.588,-3.78 -1.326,-0.921 -2.849,-1.591 -4.488,-1.926 -0.854,-0.195 -1.752,-0.293 -2.663,-0.293 -1.168,0 -2.293,0.154 -3.361,0.447 v 0.014 c -0.74,0.195 -1.467,0.46 -2.15,0.781 -1.91,0.921 -3.533,2.302 -4.729,3.991 -0.798,1.101 -1.396,2.33 -1.781,3.64 -0.299,1.061 -0.469,2.191 -0.469,3.349 0,1.311 0.213,2.567 0.598,3.753 0.356,1.074 0.854,2.093 1.481,3.013 0.812,1.186 1.823,2.219 2.99,3.056 1.168,0.851 2.507,1.506 3.946,1.925 1.111,0.307 2.264,0.474 3.475,0.474 1.581,0 3.091,-0.292 4.487,-0.823 C -6.637,8.175 -5.683,7.659 -4.813,7.045 -3.247,5.929 -1.951,4.464 -1.054,2.762 -0.584,1.897 -0.228,0.962 0,0 Z"
             style="fill:none;stroke:#231f20;stroke-width:1;stroke-linecap:butt;stroke-linejoin:miter;stroke-miterlimit:10;stroke-dasharray:none;stroke-opacity:1"
             id="path78"
             inkscape:connector-curvature="0" /></g><g
           id="g80"
           transform="translate(37.1924,40.0347)"><path
             d="M 0,0 C 0.328,1.883 0.67,3.767 0.997,5.664 3.02,5.622 4.886,5.315 6.894,5.273 7.549,3.432 7.734,1.465 7.99,-0.46 8.005,-0.516 8.005,-0.572 8.019,-0.628"
             style="fill:none;stroke:#231f20;stroke-width:1;stroke-linecap:butt;stroke-linejoin:miter;stroke-miterlimit:10;stroke-dasharray:none;stroke-opacity:1"
             id="path82"
             inkscape:connector-curvature="0" /></g><g
           id="g84"
           transform="translate(37.2783,16.2061)"><path
             d="m 0,0 c 0.242,-1.158 0.484,-2.316 0.74,-3.488 1.638,-0.293 3.376,-0.265 5.014,0.055 0.156,1.145 0.199,2.317 0.327,3.474 0.015,0.195 0.043,0.391 0.071,0.586"
             style="fill:none;stroke:#231f20;stroke-width:1;stroke-linecap:butt;stroke-linejoin:miter;stroke-miterlimit:10;stroke-dasharray:none;stroke-opacity:1"
             id="path86"
             inkscape:connector-curvature="0" /></g><g
           id="g88"
           transform="translate(52.8311,31.022)"><path
             d="M 0,0 C 1.239,-0.083 3.105,-0.167 4.344,-0.265 5.185,-1.646 5.498,-3.614 5.312,-5.204 3.418,-5.567 1.667,-6.18 -0.228,-6.529 h -0.014"
             style="fill:none;stroke:#231f20;stroke-width:1;stroke-linecap:butt;stroke-linejoin:miter;stroke-miterlimit:10;stroke-dasharray:none;stroke-opacity:1"
             id="path90"
             inkscape:connector-curvature="0" /></g><g
           id="g92"
           transform="translate(28.7749,31.9429)"><path
             d="m 0,0 c -1.51,-0.321 -3.034,-0.642 -4.543,-0.963 0.17,-1.953 -0.186,-3.878 -0.584,-5.803 1.638,-0.154 3.062,-0.279 4.7,-0.433"
             style="fill:none;stroke:#231f20;stroke-width:1;stroke-linecap:butt;stroke-linejoin:miter;stroke-miterlimit:10;stroke-dasharray:none;stroke-opacity:1"
             id="path94"
             inkscape:connector-curvature="0" /></g><g
           id="g96"
           transform="translate(48.0176,38.0674)"><path
             d="M 0,0 C 1.396,1.061 3.09,2.441 4.486,3.502 5.354,2.483 5.839,1.354 6.708,0.349 5.981,-1.297 4.984,-2.944 3.76,-4.283"
             style="fill:none;stroke:#231f20;stroke-width:1;stroke-linecap:butt;stroke-linejoin:miter;stroke-miterlimit:10;stroke-dasharray:none;stroke-opacity:1"
             id="path98"
             inkscape:connector-curvature="0" /></g><g
           id="g100"
           transform="translate(51.6201,21.8418)"><path
             d="M 0,0 C 0.969,-0.963 1.937,-1.925 2.906,-2.901 2.094,-3.809 1.254,-4.938 0.442,-5.846 c -1.539,0.447 -2.878,1.089 -4.13,2.066"
             style="fill:none;stroke:#231f20;stroke-width:1;stroke-linecap:butt;stroke-linejoin:miter;stroke-miterlimit:10;stroke-dasharray:none;stroke-opacity:1"
             id="path102"
             inkscape:connector-curvature="0" /></g><g
           id="g104"
           transform="translate(30.3701,21.1309)"><path
             d="m 0,0 c -0.47,-1.312 -0.926,-2.623 -1.381,-3.935 0.826,-0.516 1.894,-0.892 2.735,-1.409 1.239,0.196 2.449,0.656 3.46,1.409"
             style="fill:none;stroke:#231f20;stroke-width:1;stroke-linecap:butt;stroke-linejoin:miter;stroke-miterlimit:10;stroke-dasharray:none;stroke-opacity:1"
             id="path106"
             inkscape:connector-curvature="0" /></g><g
           id="g108"
           transform="translate(33.2754,38.0117)"><path
             d="m 0,0 c -0.968,1.144 -2.278,2.399 -3.575,3.195 -1.21,-0.67 -2.036,-1.8 -2.406,-3.112 1.21,-0.809 2.278,-1.925 2.99,-3.152"
             style="fill:none;stroke:#231f20;stroke-width:1;stroke-linecap:butt;stroke-linejoin:miter;stroke-miterlimit:10;stroke-dasharray:none;stroke-opacity:1"
             id="path110"
             inkscape:connector-curvature="0" /></g><g
           id="g112"><g
             id="g114" /><g
             id="g130"><g
               clip-path="url(#clipPath118)"
               id="g128"><g
                 transform="translate(44.4668,12.8682)"
                 id="g122"><path
                   d="m 0,0 c -2.236,-0.042 -4.458,0.014 -6.694,-0.028 -0.57,1.813 -1.211,4.436 -1.781,6.264 -1.096,-1.87 -1.552,-4.214 -1.254,-6.348 -1.395,0.014 -2.762,0 -2.748,0 l -0.142,0.014 c -0.456,1.939 -0.912,3.893 -1.368,5.831 -0.042,0.447 -0.114,0.894 -0.114,1.312 0,0.781 0.029,1.451 0.015,2.232 -0.072,7.925 -0.129,15.863 -0.2,23.787 1.923,0 4.131,-0.181 6.054,-0.181 0.113,-7.687 0.142,-15.374 0.27,-23.062 2.336,2.735 3.917,6.348 3.988,9.92 1.125,0.084 2.35,0 3.49,0.097 C 0.569,15.402 -1.453,10.519 -5.042,7.617 -2.664,5.817 -0.584,2.888 0,0"
                   style="fill:#8f7fbb;fill-opacity:1;fill-rule:nonzero;stroke:none"
                   id="path120"
                   inkscape:connector-curvature="0" /></g><g
                 transform="translate(15.3398,33.251)"
                 id="g126"><path
                   d="m 0,0 c 1.453,0.125 2.906,0.251 4.344,0.376 0,1.633 -0.285,3.363 -0.285,4.995 -1.509,0 -2.734,0.182 -4.244,0.182 C -0.213,3.823 0.029,1.73 0,0 m 15.14,-14.649 c 0.456,-1.939 0.912,-3.893 1.368,-5.831 -3.12,0.027 -6.68,-0.015 -9.543,-0.015 C 6.281,-14.97 5.711,-9.683 4.757,-4.45 H 0.1 c -1.012,-5.735 -1.538,-10.311 -2.55,-16.045 -3.831,-0.027 -7.235,0.042 -11.081,0 4.7,10.184 7.321,20.062 8.66,31.154 4.501,0.948 9.258,1.339 13.858,1.311 2.08,-8.873 4.088,-17.746 6.153,-26.619"
                   style="fill:#8f7fbb;fill-opacity:1;fill-rule:nonzero;stroke:none"
                   id="path124"
                   inkscape:connector-curvature="0" /></g></g></g></g><g
           id="g132"
           transform="translate(31.8477,12.7705)"><path
             d="m 0,0 c -3.12,0.027 -6.68,-0.015 -9.543,-0.015 -0.684,5.526 -1.253,10.813 -2.207,16.045 h -4.658 c -1.011,-5.734 -1.538,-10.31 -2.55,-16.045 -3.831,-0.027 -7.235,0.042 -11.081,0 4.701,10.185 7.321,20.063 8.66,31.154 4.501,0.949 9.258,1.34 13.858,1.312 2.08,-8.873 4.088,-17.747 6.153,-26.62 C -0.912,3.893 -0.456,1.938 0,0 Z"
             style="fill:none;stroke:#231f20;stroke-width:1;stroke-linecap:butt;stroke-linejoin:miter;stroke-miterlimit:10;stroke-dasharray:none;stroke-opacity:1"
             id="path134"
             inkscape:connector-curvature="0" /></g><g
           id="g136"
           transform="translate(15.3398,33.251)"><path
             d="m 0,0 c 1.453,0.125 2.906,0.251 4.344,0.376 0,1.633 -0.285,3.363 -0.285,4.995 -1.509,0 -2.734,0.182 -4.244,0.182 C -0.213,3.823 0.029,1.73 0,0 Z"
             style="fill:none;stroke:#231f20;stroke-width:1;stroke-linecap:butt;stroke-linejoin:miter;stroke-miterlimit:10;stroke-dasharray:none;stroke-opacity:1"
             id="path138"
             inkscape:connector-curvature="0" /></g><g
           id="g140"
           transform="translate(31.9902,12.7559)"><path
             d="M 0,0 C -0.015,0 1.353,0.015 2.748,0 2.449,2.135 2.905,4.479 4.002,6.349 4.571,4.521 5.213,1.897 5.782,0.084 8.019,0.126 10.24,0.07 12.477,0.112 11.893,3 9.813,5.93 7.435,7.729 c 3.588,2.902 5.611,7.786 4.557,12.222 C 10.853,19.853 9.628,19.937 8.503,19.853 8.432,16.282 6.851,12.668 4.515,9.934 4.387,17.621 4.357,25.308 4.244,32.996 c -1.923,0 -4.131,0.181 -6.053,0.181 0.071,-7.925 0.128,-15.863 0.199,-23.787 0.014,-0.782 -0.014,-1.452 -0.014,-2.233 0,-0.418 0.071,-0.865 0.114,-1.311 0.028,-0.181 0.043,-0.363 0.057,-0.531"
             style="fill:none;stroke:#231f20;stroke-width:1;stroke-linecap:butt;stroke-linejoin:miter;stroke-miterlimit:10;stroke-dasharray:none;stroke-opacity:1"
             id="path142"
             inkscape:connector-curvature="0" /></g></g></g></g></svg>